<mxfile host="app.diagrams.net" agent="Mozilla/5.0 (Macintosh; Intel Mac OS X 10_15_7) AppleWebKit/537.36 (KHTML, like Gecko) Chrome/133.0.0.0 Safari/537.36" version="26.0.11">
  <diagram name="第 1 页" id="R9Tjd81pKfl33krGfwRG">
    <mxGraphModel dx="2271" dy="981" grid="1" gridSize="10" guides="1" tooltips="1" connect="1" arrows="1" fold="1" page="1" pageScale="1" pageWidth="3300" pageHeight="4681" math="0" shadow="0">
      <root>
        <mxCell id="0" />
        <mxCell id="1" parent="0" />
        <mxCell id="3svpwcTt1MkzbG58s2gD-4" style="edgeStyle=orthogonalEdgeStyle;rounded=0;orthogonalLoop=1;jettySize=auto;html=1;entryX=0;entryY=0.5;entryDx=0;entryDy=0;strokeWidth=2;" edge="1" parent="1">
          <mxGeometry relative="1" as="geometry">
            <mxPoint x="490" y="220" as="sourcePoint" />
            <mxPoint x="690" y="220" as="targetPoint" />
          </mxGeometry>
        </mxCell>
        <mxCell id="3svpwcTt1MkzbG58s2gD-6" value="&lt;font style=&quot;font-size: 12px;&quot;&gt;获取变量&lt;/font&gt;" style="edgeLabel;html=1;align=center;verticalAlign=middle;resizable=0;points=[];" vertex="1" connectable="0" parent="3svpwcTt1MkzbG58s2gD-4">
          <mxGeometry x="-0.0444" y="1" relative="1" as="geometry">
            <mxPoint as="offset" />
          </mxGeometry>
        </mxCell>
        <mxCell id="3svpwcTt1MkzbG58s2gD-1" value="&lt;font style=&quot;font-size: 18px;&quot;&gt;机审&lt;/font&gt;" style="rounded=0;whiteSpace=wrap;html=1;strokeWidth=2;" vertex="1" parent="1">
          <mxGeometry x="370" y="200" width="120" height="60" as="geometry" />
        </mxCell>
        <mxCell id="3svpwcTt1MkzbG58s2gD-8" style="edgeStyle=orthogonalEdgeStyle;rounded=0;orthogonalLoop=1;jettySize=auto;html=1;entryX=0;entryY=0.5;entryDx=0;entryDy=0;strokeWidth=2;" edge="1" parent="1">
          <mxGeometry relative="1" as="geometry">
            <mxPoint x="810.0000000000002" y="220" as="sourcePoint" />
            <mxPoint x="1010.0000000000002" y="220" as="targetPoint" />
          </mxGeometry>
        </mxCell>
        <mxCell id="3svpwcTt1MkzbG58s2gD-10" value="&lt;font style=&quot;font-size: 12px;&quot;&gt;越信/越风查征&lt;/font&gt;" style="edgeLabel;html=1;align=center;verticalAlign=middle;resizable=0;points=[];" vertex="1" connectable="0" parent="3svpwcTt1MkzbG58s2gD-8">
          <mxGeometry x="0.0025" relative="1" as="geometry">
            <mxPoint as="offset" />
          </mxGeometry>
        </mxCell>
        <mxCell id="3svpwcTt1MkzbG58s2gD-13" style="edgeStyle=orthogonalEdgeStyle;rounded=0;orthogonalLoop=1;jettySize=auto;html=1;entryX=0.341;entryY=0.974;entryDx=0;entryDy=0;strokeWidth=2;exitX=0.345;exitY=-0.007;exitDx=0;exitDy=0;exitPerimeter=0;entryPerimeter=0;" edge="1" parent="1" source="3svpwcTt1MkzbG58s2gD-12" target="3svpwcTt1MkzbG58s2gD-2">
          <mxGeometry relative="1" as="geometry">
            <mxPoint x="730" y="350" as="sourcePoint" />
            <mxPoint x="730" y="300" as="targetPoint" />
          </mxGeometry>
        </mxCell>
        <mxCell id="3svpwcTt1MkzbG58s2gD-15" value="&lt;font style=&quot;font-size: 12px;&quot;&gt;获取小贷查征参数&lt;/font&gt;" style="edgeLabel;html=1;align=center;verticalAlign=middle;resizable=0;points=[];" vertex="1" connectable="0" parent="3svpwcTt1MkzbG58s2gD-13">
          <mxGeometry x="-0.1394" relative="1" as="geometry">
            <mxPoint as="offset" />
          </mxGeometry>
        </mxCell>
        <mxCell id="3svpwcTt1MkzbG58s2gD-23" style="edgeStyle=orthogonalEdgeStyle;rounded=0;orthogonalLoop=1;jettySize=auto;html=1;strokeWidth=2;exitX=0.669;exitY=-0.022;exitDx=0;exitDy=0;exitPerimeter=0;entryX=0.669;entryY=-0.022;entryDx=0;entryDy=0;entryPerimeter=0;" edge="1" parent="1" target="3svpwcTt1MkzbG58s2gD-12">
          <mxGeometry relative="1" as="geometry">
            <mxPoint x="770" y="300" as="sourcePoint" />
            <mxPoint x="770" y="540" as="targetPoint" />
          </mxGeometry>
        </mxCell>
        <mxCell id="3svpwcTt1MkzbG58s2gD-2" value="&lt;span style=&quot;font-size: 18px;&quot;&gt;rpc/uid_rpc&lt;/span&gt;" style="rounded=0;whiteSpace=wrap;html=1;strokeWidth=2;" vertex="1" parent="1">
          <mxGeometry x="690" y="200" width="120" height="100" as="geometry" />
        </mxCell>
        <mxCell id="3svpwcTt1MkzbG58s2gD-35" style="edgeStyle=orthogonalEdgeStyle;rounded=0;orthogonalLoop=1;jettySize=auto;html=1;exitX=0.75;exitY=1;exitDx=0;exitDy=0;entryX=1;entryY=0.75;entryDx=0;entryDy=0;" edge="1" parent="1" source="3svpwcTt1MkzbG58s2gD-3" target="3svpwcTt1MkzbG58s2gD-12">
          <mxGeometry relative="1" as="geometry">
            <Array as="points">
              <mxPoint x="1060" y="260" />
              <mxPoint x="1060" y="425" />
            </Array>
          </mxGeometry>
        </mxCell>
        <mxCell id="3svpwcTt1MkzbG58s2gD-37" value="&lt;font style=&quot;font-size: 12px;&quot;&gt;结果返回&lt;/font&gt;" style="edgeLabel;html=1;align=center;verticalAlign=middle;resizable=0;points=[];" vertex="1" connectable="0" parent="3svpwcTt1MkzbG58s2gD-35">
          <mxGeometry x="0.4031" y="-2" relative="1" as="geometry">
            <mxPoint as="offset" />
          </mxGeometry>
        </mxCell>
        <mxCell id="3svpwcTt1MkzbG58s2gD-3" value="&lt;font style=&quot;font-size: 18px;&quot;&gt;数据&lt;/font&gt;" style="rounded=0;whiteSpace=wrap;html=1;strokeWidth=2;" vertex="1" parent="1">
          <mxGeometry x="1010" y="200" width="120" height="60" as="geometry" />
        </mxCell>
        <mxCell id="3svpwcTt1MkzbG58s2gD-5" style="edgeStyle=orthogonalEdgeStyle;rounded=0;orthogonalLoop=1;jettySize=auto;html=1;entryX=0;entryY=0.5;entryDx=0;entryDy=0;strokeWidth=2;" edge="1" parent="1">
          <mxGeometry relative="1" as="geometry">
            <mxPoint x="690" y="240" as="sourcePoint" />
            <mxPoint x="490" y="240" as="targetPoint" />
          </mxGeometry>
        </mxCell>
        <mxCell id="3svpwcTt1MkzbG58s2gD-7" value="&lt;font style=&quot;font-size: 12px;&quot;&gt;返回结果&lt;/font&gt;" style="edgeLabel;html=1;align=center;verticalAlign=middle;resizable=0;points=[];" vertex="1" connectable="0" parent="3svpwcTt1MkzbG58s2gD-5">
          <mxGeometry x="0.0816" relative="1" as="geometry">
            <mxPoint as="offset" />
          </mxGeometry>
        </mxCell>
        <mxCell id="3svpwcTt1MkzbG58s2gD-9" style="edgeStyle=orthogonalEdgeStyle;rounded=0;orthogonalLoop=1;jettySize=auto;html=1;entryX=0;entryY=0.5;entryDx=0;entryDy=0;strokeWidth=2;" edge="1" parent="1">
          <mxGeometry relative="1" as="geometry">
            <mxPoint x="1010" y="240" as="sourcePoint" />
            <mxPoint x="810" y="240" as="targetPoint" />
          </mxGeometry>
        </mxCell>
        <mxCell id="3svpwcTt1MkzbG58s2gD-11" value="&lt;font style=&quot;font-size: 12px;&quot;&gt;结果返回&lt;/font&gt;" style="edgeLabel;html=1;align=center;verticalAlign=middle;resizable=0;points=[];" vertex="1" connectable="0" parent="3svpwcTt1MkzbG58s2gD-9">
          <mxGeometry x="0.0225" relative="1" as="geometry">
            <mxPoint as="offset" />
          </mxGeometry>
        </mxCell>
        <mxCell id="3svpwcTt1MkzbG58s2gD-34" style="edgeStyle=orthogonalEdgeStyle;rounded=0;orthogonalLoop=1;jettySize=auto;html=1;entryX=0.25;entryY=1;entryDx=0;entryDy=0;" edge="1" parent="1" source="3svpwcTt1MkzbG58s2gD-12" target="3svpwcTt1MkzbG58s2gD-3">
          <mxGeometry relative="1" as="geometry">
            <Array as="points">
              <mxPoint x="1040" y="400" />
            </Array>
          </mxGeometry>
        </mxCell>
        <mxCell id="3svpwcTt1MkzbG58s2gD-36" value="&lt;font style=&quot;font-size: 12px;&quot;&gt;小贷查征&lt;/font&gt;" style="edgeLabel;html=1;align=center;verticalAlign=middle;resizable=0;points=[];" vertex="1" connectable="0" parent="3svpwcTt1MkzbG58s2gD-34">
          <mxGeometry x="-0.266" y="2" relative="1" as="geometry">
            <mxPoint as="offset" />
          </mxGeometry>
        </mxCell>
        <mxCell id="3svpwcTt1MkzbG58s2gD-12" value="&lt;span style=&quot;font-size: 18px;&quot;&gt;小贷前置&lt;/span&gt;" style="rounded=0;whiteSpace=wrap;html=1;strokeWidth=2;" vertex="1" parent="1">
          <mxGeometry x="690" y="380" width="120" height="60" as="geometry" />
        </mxCell>
        <mxCell id="3svpwcTt1MkzbG58s2gD-29" value="" style="edgeStyle=orthogonalEdgeStyle;rounded=0;orthogonalLoop=1;jettySize=auto;html=1;" edge="1" parent="1" source="3svpwcTt1MkzbG58s2gD-17" target="3svpwcTt1MkzbG58s2gD-2">
          <mxGeometry relative="1" as="geometry" />
        </mxCell>
        <mxCell id="3svpwcTt1MkzbG58s2gD-31" value="&lt;font style=&quot;font-size: 12px;&quot;&gt;补越信、越风&lt;/font&gt;" style="edgeLabel;html=1;align=center;verticalAlign=middle;resizable=0;points=[];" vertex="1" connectable="0" parent="3svpwcTt1MkzbG58s2gD-29">
          <mxGeometry x="-0.1558" relative="1" as="geometry">
            <mxPoint as="offset" />
          </mxGeometry>
        </mxCell>
        <mxCell id="3svpwcTt1MkzbG58s2gD-17" value="&lt;font style=&quot;font-size: 18px;&quot;&gt;补查征服务&lt;/font&gt;&lt;div&gt;&lt;font size=&quot;3&quot;&gt;越信/越风/众安&lt;/font&gt;&lt;/div&gt;" style="rounded=0;whiteSpace=wrap;html=1;strokeWidth=2;" vertex="1" parent="1">
          <mxGeometry x="460" y="300" width="120" height="60" as="geometry" />
        </mxCell>
        <mxCell id="3svpwcTt1MkzbG58s2gD-32" style="edgeStyle=orthogonalEdgeStyle;rounded=0;orthogonalLoop=1;jettySize=auto;html=1;entryX=0;entryY=0.5;entryDx=0;entryDy=0;" edge="1" parent="1" source="3svpwcTt1MkzbG58s2gD-18" target="3svpwcTt1MkzbG58s2gD-12">
          <mxGeometry relative="1" as="geometry">
            <Array as="points">
              <mxPoint x="290" y="410" />
            </Array>
          </mxGeometry>
        </mxCell>
        <mxCell id="3svpwcTt1MkzbG58s2gD-33" value="&lt;font style=&quot;font-size: 12px;&quot;&gt;补小贷征信&lt;/font&gt;" style="edgeLabel;html=1;align=center;verticalAlign=middle;resizable=0;points=[];" vertex="1" connectable="0" parent="3svpwcTt1MkzbG58s2gD-32">
          <mxGeometry x="0.1279" y="-4" relative="1" as="geometry">
            <mxPoint as="offset" />
          </mxGeometry>
        </mxCell>
        <mxCell id="3svpwcTt1MkzbG58s2gD-18" value="&lt;font style=&quot;font-size: 18px;&quot;&gt;资金&lt;/font&gt;" style="rounded=0;whiteSpace=wrap;html=1;strokeWidth=2;" vertex="1" parent="1">
          <mxGeometry x="230" y="300" width="120" height="60" as="geometry" />
        </mxCell>
        <mxCell id="3svpwcTt1MkzbG58s2gD-25" style="edgeStyle=orthogonalEdgeStyle;rounded=0;orthogonalLoop=1;jettySize=auto;html=1;entryX=1;entryY=0.833;entryDx=0;entryDy=0;strokeWidth=2;entryPerimeter=0;" edge="1" parent="1" target="3svpwcTt1MkzbG58s2gD-18">
          <mxGeometry relative="1" as="geometry">
            <mxPoint x="460" y="350" as="sourcePoint" />
            <mxPoint x="380" y="350" as="targetPoint" />
          </mxGeometry>
        </mxCell>
        <mxCell id="3svpwcTt1MkzbG58s2gD-27" style="edgeStyle=orthogonalEdgeStyle;rounded=0;orthogonalLoop=1;jettySize=auto;html=1;entryX=1;entryY=0.833;entryDx=0;entryDy=0;strokeWidth=2;entryPerimeter=0;" edge="1" parent="1">
          <mxGeometry relative="1" as="geometry">
            <mxPoint x="350" y="320" as="sourcePoint" />
            <mxPoint x="460" y="320" as="targetPoint" />
          </mxGeometry>
        </mxCell>
        <mxCell id="3svpwcTt1MkzbG58s2gD-28" value="&lt;font style=&quot;font-size: 12px;&quot;&gt;补越信越风&lt;/font&gt;" style="edgeLabel;html=1;align=center;verticalAlign=middle;resizable=0;points=[];" vertex="1" connectable="0" parent="3svpwcTt1MkzbG58s2gD-27">
          <mxGeometry x="-0.0606" y="1" relative="1" as="geometry">
            <mxPoint as="offset" />
          </mxGeometry>
        </mxCell>
      </root>
    </mxGraphModel>
  </diagram>
</mxfile>
